<svg width="25" height="20" viewBox="0 0 25 20" fill="none" xmlns="http://www.w3.org/2000/svg">
<path id="Vector" d="M0.532619 9.33829L8.8889 1.29124C9.635 0.572752 10.8946 1.10928 10.8749 2.1589L10.7865 6.84557L17.4259 6.97074C18.0752 6.98298 18.5878 7.51519 18.5755 8.16449L18.4872 12.8512C18.4749 13.5005 17.9427 14.013 17.2934 14.0007L10.654 13.8756L10.5656 18.5622C10.5459 19.607 9.27175 20.1006 8.54838 19.3544L0.501327 10.9982C0.0559577 10.5307 0.0699467 9.78863 0.532619 9.33829ZM15.5726 1.66142L15.5358 3.6142C15.5297 3.93641 15.7883 4.205 16.1105 4.21108L20.2114 4.28839C21.0755 4.30468 21.7604 5.01595 21.7441 5.88006L21.5674 15.2534C21.5512 16.1175 20.8399 16.8025 19.9758 16.7862L15.8749 16.7089C15.5527 16.7028 15.2841 16.9614 15.2781 17.2836L15.2412 19.2364C15.2352 19.5586 15.4938 19.8272 15.816 19.8333L19.9169 19.9106C22.5043 19.9594 24.6431 17.8997 24.6919 15.3123L24.8686 5.93896C24.9174 3.35153 22.8577 1.21272 20.2703 1.16394L16.1694 1.08663C15.8472 1.08056 15.5786 1.33921 15.5726 1.66142Z" fill="black"/>
</svg>
