<svg width="48" height="48" viewBox="0 0 48 48" fill="none" xmlns="http://www.w3.org/2000/svg">
<g id="Standard Collection 12" filter="url(#filter0_d_84_480)">
<g id="Group">
<path id="Vector" d="M33.9792 40V37.1428C33.9792 36.7676 33.9146 36.3961 33.7891 36.0494C33.6635 35.7029 33.4795 35.3879 33.2476 35.1224C33.0155 34.8571 32.74 34.6467 32.4371 34.5031C32.1339 34.3596 31.809 34.2857 31.4809 34.2857H21.4872C18.1743 34.2857 14.997 32.7806 12.6544 30.1015C10.3118 27.4224 8.99572 23.7889 8.99566 20C8.99566 18.124 9.31877 16.2663 9.94653 14.5331C10.5743 12.7998 11.4944 11.225 12.6544 9.89843C13.8143 8.57189 15.1914 7.51963 16.7069 6.80172C18.2224 6.0838 19.8468 5.71433 21.4872 5.71435H31.4802C31.8083 5.71445 32.1333 5.64064 32.4365 5.49711C32.7397 5.35357 33.0153 5.14313 33.2472 4.87781C33.4794 4.61247 33.6634 4.29746 33.7891 3.95076C33.9146 3.60406 33.9792 3.23246 33.9792 2.85717V0H21.4877C19.1912 -1.50743e-10 16.9172 0.517317 14.7954 1.52241C12.6737 2.52751 10.7459 4.00071 9.12198 5.85787C7.49809 7.71505 6.20994 9.91984 5.33112 12.3464C4.45229 14.7729 3.99998 17.3736 4 20C4 25.3042 5.84244 30.3914 9.12202 34.1421C12.4016 37.8928 16.8497 40 21.4877 40H33.9792Z" fill="url(#paint0_linear_84_480)"/>
<path id="Vector_2" d="M13.9922 20C13.9922 22.2733 14.7818 24.4533 16.1873 26.0606C17.5928 27.6681 19.4991 28.5711 21.4867 28.5711H33.9792C35.3044 28.5711 36.5751 29.1732 37.5121 30.2448C38.4491 31.3164 38.9756 32.7699 38.9756 34.2854V39.9998H43.9722V34.2857C43.9722 31.2547 42.9194 28.3478 41.0454 26.2044C39.1712 24.0612 36.6294 22.8572 33.9792 22.8572H21.4871C20.8245 22.8572 20.1891 22.5561 19.7205 22.0204C19.252 21.4845 18.9888 20.7578 18.9888 20C18.9888 19.2422 19.252 18.5155 19.7205 17.9797C20.1891 17.4438 20.8245 17.1428 21.4871 17.1428H33.9792C36.6294 17.1428 39.1712 15.9388 41.0454 13.7955C42.9194 11.6522 43.9722 8.74536 43.9722 5.71435V0H38.9748V5.71435C38.9748 7.22967 38.4485 8.68297 37.5117 9.75455C36.5749 10.8261 35.3042 11.4282 33.9792 11.4285H21.4871C20.5028 11.4284 19.5282 11.6501 18.6189 12.0808C17.7095 12.5116 16.8833 13.143 16.1873 13.9389C15.4913 14.7348 14.9393 15.6798 14.5626 16.7198C14.186 17.7597 13.9922 18.8744 13.9922 20Z" fill="url(#paint1_linear_84_480)"/>
</g>
</g>
<defs>
<filter id="filter0_d_84_480" x="0" y="0" width="47.9727" height="48" filterUnits="userSpaceOnUse" color-interpolation-filters="sRGB">
<feFlood flood-opacity="0" result="BackgroundImageFix"/>
<feColorMatrix in="SourceAlpha" type="matrix" values="0 0 0 0 0 0 0 0 0 0 0 0 0 0 0 0 0 0 127 0" result="hardAlpha"/>
<feOffset dy="4"/>
<feGaussianBlur stdDeviation="2"/>
<feComposite in2="hardAlpha" operator="out"/>
<feColorMatrix type="matrix" values="0 0 0 0 0 0 0 0 0 0 0 0 0 0 0 0 0 0 0.25 0"/>
<feBlend mode="normal" in2="BackgroundImageFix" result="effect1_dropShadow_84_480"/>
<feBlend mode="normal" in="SourceGraphic" in2="effect1_dropShadow_84_480" result="shape"/>
</filter>
<linearGradient id="paint0_linear_84_480" x1="8.52686" y1="20" x2="46.9903" y2="20" gradientUnits="userSpaceOnUse">
<stop stop-color="#817696"/>
<stop offset="1" stop-color="#817698"/>
</linearGradient>
<linearGradient id="paint1_linear_84_480" x1="8.50586" y1="19.9999" x2="47.0001" y2="19.9999" gradientUnits="userSpaceOnUse">
<stop stop-color="#8575D2"/>
<stop offset="1" stop-color="#9083D5"/>
</linearGradient>
</defs>
</svg>
