<svg width="22" height="25" viewBox="0 0 22 25" fill="none" xmlns="http://www.w3.org/2000/svg">
<path id="Vector" d="M13.534 0.584961C12.7392 0.218262 11.8623 0 10.9299 0C8.31012 0 6.07486 1.61768 5.14729 3.90625H9.10888L13.534 0.584961ZM16.7125 3.90625C16.327 2.95557 15.7039 2.13867 14.932 1.48828L11.7101 3.90625H16.7125ZM10.9299 12.5C14.3791 12.5 17.1755 9.70166 17.1755 6.25C17.1755 5.98242 17.1292 5.72754 17.097 5.46875H4.76279C4.7301 5.72754 4.68423 5.98242 4.68423 6.25C4.68423 9.70166 7.48062 12.5 10.9299 12.5ZM3.90353 14.6338V25H10.1619L5.35808 14.1836C4.85724 14.276 4.36902 14.4271 3.90353 14.6338ZM0 22.6562C0 23.9507 1.04858 25 2.34212 25V15.6367C0.921232 16.8403 0 18.6162 0 20.625V22.6562ZM12.4913 20.3125H9.78907L11.8711 25H12.4913C13.7829 25 14.8334 23.9487 14.8334 22.6562C14.8334 21.3638 13.7829 20.3125 12.4913 20.3125ZM15.3018 14.0625H14.4865C13.4013 14.5596 12.199 14.8438 10.9299 14.8438C9.66074 14.8438 8.45845 14.5596 7.37327 14.0625H7.01366L9.0957 18.75H12.4913C14.6436 18.75 16.3948 20.5024 16.3948 22.6562C16.3948 23.5391 16.0894 24.3452 15.5941 25H19.5176C20.8112 25 21.8597 23.9507 21.8597 22.6562V20.625C21.8597 17.0005 18.9238 14.0625 15.3018 14.0625Z" fill="black"/>
</svg>
