<svg width="50" height="50" viewBox="0 0 50 50" fill="none" xmlns="http://www.w3.org/2000/svg">
<g id="Group 9972">
<path id="Vector" d="M19.6783 17.0744L25.1172 22.5242C25.4199 22.8269 25.4199 23.325 25.1172 23.6278L24.0138 24.7314C23.7111 25.0342 23.2131 25.0342 22.9104 24.7314L17.4714 19.2817L13.048 23.7059L18.4967 29.1557C18.7994 29.4584 18.7994 29.9565 18.4967 30.2593L17.3933 31.3629C17.0906 31.6657 16.5926 31.6657 16.2899 31.3629L10.8412 25.9034L8.26335 28.4818C6.57407 30.1714 5.7636 32.4958 6.01748 34.8691L6.71077 41.0807L0.227029 47.5657C-0.0756762 47.8684 -0.0756762 48.3665 0.227029 48.6693L1.33044 49.7729C1.63314 50.0757 2.13114 50.0757 2.43384 49.7729L8.90782 43.2977L15.1182 43.9911C17.4519 44.245 19.7954 43.4637 21.5042 41.7448L39.2662 23.9794L26.0155 10.7261L19.6783 17.0744ZM49.773 7.9622L42.0394 0.227073C41.7366 -0.075691 41.2386 -0.075691 40.9359 0.227073L39.8325 1.3307C39.5298 1.63346 39.5298 2.13156 39.8325 2.43432L42.5959 5.19826L38.1725 9.62252L32.6457 4.09464L30.9857 2.43432C30.683 2.13156 30.185 2.13156 29.8823 2.43432L26.5721 5.74519C26.2694 6.04795 26.2694 6.54605 26.5721 6.84881L28.2321 8.50913L41.4828 21.7819L43.1428 23.4422C43.4455 23.745 43.9435 23.745 44.2462 23.4422L47.5564 20.1216C47.8591 19.8188 47.8591 19.3207 47.5564 19.018L40.3794 11.8395L44.8027 7.41528L47.5662 10.1792C47.8689 10.482 48.3669 10.482 48.6696 10.1792L49.773 9.07559C50.0757 8.76306 50.0757 8.27473 49.773 7.9622Z" fill="black"/>
</g>
</svg>
