<svg width="50" height="50" viewBox="0 0 50 50" fill="none" xmlns="http://www.w3.org/2000/svg">
<g id="Group 9973">
<path id="Vector" d="M24.3371 12.9713L8.33399 29.9207V48.2141C8.33399 48.6877 8.48031 49.142 8.74076 49.4769C9.0012 49.8118 9.35444 50 9.72277 50L19.4495 49.9676C19.8166 49.9653 20.168 49.7761 20.427 49.4414C20.6859 49.1067 20.8313 48.6538 20.8313 48.1817V37.4986C20.8313 37.025 20.9776 36.5707 21.2381 36.2358C21.4985 35.9008 21.8517 35.7127 22.2201 35.7127H27.7752C28.1435 35.7127 28.4968 35.9008 28.7572 36.2358C29.0177 36.5707 29.164 37.025 29.164 37.4986V48.1739C29.1634 48.4089 29.1989 48.6417 29.2684 48.8591C29.338 49.0764 29.4402 49.2739 29.5692 49.4403C29.6982 49.6068 29.8515 49.7388 30.0203 49.8289C30.1891 49.919 30.37 49.9654 30.5528 49.9654L40.276 50C40.6443 50 40.9975 49.8118 41.258 49.4769C41.5184 49.142 41.6648 48.6877 41.6648 48.2141V29.9085L25.6651 12.9713C25.477 12.7763 25.2427 12.67 25.0011 12.67C24.7595 12.67 24.5252 12.7763 24.3371 12.9713ZM49.6155 24.4916L42.3591 16.7999V1.33944C42.3591 0.984195 42.2494 0.643505 42.0541 0.392312C41.8587 0.141119 41.5938 0 41.3176 0H36.4568C36.1806 0 35.9156 0.141119 35.7203 0.392312C35.525 0.643505 35.4152 0.984195 35.4152 1.33944V9.44413L27.6441 1.22223C26.8984 0.433061 25.9626 0.00157757 24.9968 0.00157757C24.031 0.00157757 23.0952 0.433061 22.3494 1.22223L0.378008 24.4916C0.272536 24.6037 0.185276 24.7414 0.121211 24.8969C0.0571465 25.0524 0.017534 25.2226 0.00463693 25.3978C-0.00826017 25.5729 0.00581089 25.7497 0.0460461 25.9179C0.0862813 26.086 0.151892 26.2424 0.23913 26.3779L2.4525 29.8382C2.5395 29.9742 2.64651 30.0868 2.76741 30.1696C2.8883 30.2524 3.0207 30.3037 3.15704 30.3206C3.29338 30.3375 3.43096 30.3197 3.56193 30.2681C3.69289 30.2165 3.81467 30.1323 3.92027 30.0201L24.3371 8.39491C24.5252 8.19994 24.7595 8.09362 25.0011 8.09362C25.2427 8.09362 25.477 8.19994 25.6651 8.39491L46.0828 30.0201C46.1882 30.1323 46.3098 30.2166 46.4406 30.2684C46.5714 30.3201 46.7088 30.3382 46.845 30.3216C46.9813 30.3051 47.1136 30.2541 47.2345 30.1717C47.3554 30.0893 47.4625 29.9771 47.5497 29.8415L49.7631 26.3813C49.8502 26.2449 49.9156 26.0878 49.9553 25.9189C49.9951 25.75 50.0085 25.5726 49.9948 25.397C49.9811 25.2214 49.9405 25.051 49.8754 24.8956C49.8103 24.7402 49.722 24.6029 49.6155 24.4916Z" fill="black"/>
</g>
</svg>
