<svg width="50" height="50" viewBox="0 0 50 50" fill="none" xmlns="http://www.w3.org/2000/svg">
<path id="Vector" d="M43.75 6.25H33.3333C33.3333 2.80273 29.5964 0 25 0C20.4036 0 16.6667 2.80273 16.6667 6.25H6.25C2.79948 6.25 0 8.34961 0 10.9375V45.3125C0 47.9004 2.79948 50 6.25 50H43.75C47.2005 50 50 47.9004 50 45.3125V10.9375C50 8.34961 47.2005 6.25 43.75 6.25ZM25 3.90625C26.7318 3.90625 28.125 4.95117 28.125 6.25C28.125 7.54883 26.7318 8.59375 25 8.59375C23.2682 8.59375 21.875 7.54883 21.875 6.25C21.875 4.95117 23.2682 3.90625 25 3.90625ZM37.5 33.5938C37.5 34.0234 37.0312 34.375 36.4583 34.375H29.1667V39.8438C29.1667 40.2734 28.6979 40.625 28.125 40.625H21.875C21.3021 40.625 20.8333 40.2734 20.8333 39.8438V34.375H13.5417C12.9687 34.375 12.5 34.0234 12.5 33.5938V28.9062C12.5 28.4766 12.9687 28.125 13.5417 28.125H20.8333V22.6562C20.8333 22.2266 21.3021 21.875 21.875 21.875H28.125C28.6979 21.875 29.1667 22.2266 29.1667 22.6562V28.125H36.4583C37.0312 28.125 37.5 28.4766 37.5 28.9062V33.5938ZM37.5 14.8438C37.5 15.2734 37.0312 15.625 36.4583 15.625H13.5417C12.9687 15.625 12.5 15.2734 12.5 14.8438V13.2812C12.5 12.8516 12.9687 12.5 13.5417 12.5H36.4583C37.0312 12.5 37.5 12.8516 37.5 13.2812V14.8438Z" fill="black"/>
</svg>
