<svg width="44" height="50" viewBox="0 0 44 50" fill="none" xmlns="http://www.w3.org/2000/svg">
<path id="Vector" d="M27.2417 1.16992C25.6418 0.436523 23.8769 0 22 0C16.7269 0 12.2277 3.23535 10.3606 7.8125H18.3346L27.2417 1.16992ZM33.6394 7.8125C32.8635 5.91113 31.6093 4.27734 30.0555 2.97656L23.5704 7.8125H33.6394ZM22 25C28.9428 25 34.5714 19.4033 34.5714 12.5C34.5714 11.9648 34.4781 11.4551 34.4133 10.9375H9.5867C9.52089 11.4551 9.42857 11.9648 9.42857 12.5C9.42857 19.4033 15.0572 25 22 25ZM7.85714 29.2676V50H20.4541L10.7849 28.3672C9.7768 28.5519 8.7941 28.8541 7.85714 29.2676ZM0 45.3125C0 47.9014 2.11063 50 4.71429 50V31.2734C1.85429 33.6807 0 37.2324 0 41.25V45.3125ZM25.1429 40.625H19.7037L23.8946 50H25.1429C27.7426 50 29.8571 47.8975 29.8571 45.3125C29.8571 42.7275 27.7426 40.625 25.1429 40.625ZM30.8 28.125H29.1588C26.9746 29.1191 24.5546 29.6875 22 29.6875C19.4454 29.6875 17.0254 29.1191 14.8412 28.125H14.1173L18.3081 37.5H25.1429C29.4751 37.5 33 41.0049 33 45.3125C33 47.0781 32.3852 48.6904 31.3883 50H39.2857C41.8894 50 44 47.9014 44 45.3125V41.25C44 34.001 38.0904 28.125 30.8 28.125Z" fill="black"/>
</svg>
